<?xml version="1.0" encoding="iso-8859-1"?>
<!-- Generator: Adobe Illustrator 19.0.0, SVG Export Plug-In . SVG Version: 6.00 Build 0)  -->
<svg version="1.1" id="Capa_1" xmlns="http://www.w3.org/2000/svg" xmlns:xlink="http://www.w3.org/1999/xlink" x="0px" y="0px"
	 viewBox="0 0 512.22 512.22" style="enable-background:new 0 0 512.22 512.22;" xml:space="preserve">
<g transform="translate(0 -1)">
	<g>
		<g>
			<path d="M418.243,197.486H358.51c-4.713,0-8.533,3.82-8.533,8.533s3.821,8.533,8.533,8.533h59.733
				c4.713,0,8.533-3.821,8.533-8.533S422.956,197.486,418.243,197.486z"/>
			<path d="M324.376,197.486H307.31c-4.713,0-8.533,3.82-8.533,8.533s3.82,8.533,8.533,8.533h17.067
				c4.713,0,8.533-3.821,8.533-8.533S329.089,197.486,324.376,197.486z"/>
			<path d="M153.71,129.22H93.976c-4.713,0-8.533,3.82-8.533,8.533s3.82,8.533,8.533,8.533h59.733c4.713,0,8.533-3.82,8.533-8.533
				S158.423,129.22,153.71,129.22z"/>
			<path d="M204.91,129.22h-17.067c-4.713,0-8.533,3.82-8.533,8.533s3.82,8.533,8.533,8.533h17.067c4.713,0,8.533-3.82,8.533-8.533
				S209.623,129.22,204.91,129.22z"/>
			<path d="M470.897,192.44l-35.404-25.596c-3.181-2.273-6.994-3.494-10.904-3.492H281.71V77.801
				c14.692-11.019,20.685-30.203,14.878-47.626C290.78,12.752,274.475,1,256.11,1s-34.67,11.752-40.478,29.175
				c-5.808,17.423,0.185,36.607,14.878,47.626v17.285H87.631c-3.908-0.003-7.719,1.217-10.9,3.487l-35.404,25.6
				c-4.438,3.097-7.083,8.167-7.083,13.578c-0.001,5.412,2.642,10.482,7.079,13.58l35.404,25.596
				c3.181,2.273,6.994,3.494,10.904,3.492H230.51v42.667H87.631c-3.908-0.003-7.719,1.217-10.9,3.487l-35.404,25.6
				c-4.438,3.097-7.083,8.167-7.083,13.578c-0.001,5.412,2.642,10.482,7.079,13.58l35.404,25.596
				c3.181,2.273,6.994,3.494,10.904,3.492H230.51v85.333h-51.2c-29.661,0.052-54.798,21.846-59.052,51.2h-9.215
				c-18.842,0.022-34.112,15.291-34.133,34.133v17.067c0.009,9.422,7.645,17.057,17.067,17.067h324.267
				c9.422-0.009,17.057-7.645,17.067-17.067v-17.067c-0.022-18.842-15.291-34.112-34.133-34.133h-9.215
				c-4.255-29.354-29.391-51.148-59.052-51.2h-51.2V248.686h142.879c3.908,0.003,7.719-1.217,10.9-3.487l35.404-25.6
				c4.438-3.097,7.083-8.167,7.083-13.578C477.977,200.609,475.334,195.539,470.897,192.44z M87.631,163.353
				c-0.319,0.009-0.633-0.08-0.9-0.254l-35.408-25.092l35.413-25.604c0.267-0.172,0.579-0.259,0.896-0.25H230.51v51.2H87.631z
				 M87.631,291.353c-0.319,0.009-0.633-0.08-0.9-0.254l-35.408-25.092l35.412-25.604c0.267-0.172,0.579-0.259,0.896-0.25H230.51
				v51.2H87.631z M401.176,462.02c9.422,0.009,17.057,7.645,17.067,17.067l0.012,17.067H93.976v-17.067
				c0.009-9.422,7.645-17.057,17.067-17.067H401.176z M332.91,410.82c20.266,0.026,37.727,14.282,41.808,34.133H137.501
				c4.081-19.851,21.542-34.107,41.808-34.133H332.91z M247.576,393.753V85.69c2.808,0.573,5.667,0.862,8.533,0.862
				c2.866,0,5.725-0.289,8.533-0.862v308.062H247.576z M256.11,69.486c-14.138,0-25.6-11.461-25.6-25.6
				c0.015-14.132,11.468-25.585,25.6-25.6c14.138,0,25.6,11.462,25.6,25.6S270.248,69.486,256.11,69.486z M425.485,231.37
				c-0.267,0.172-0.579,0.259-0.896,0.25H281.71v-51.2h142.879c0.319-0.009,0.633,0.08,0.9,0.254l35.408,25.092L425.485,231.37z"/>
			<path d="M153.71,257.22H93.976c-4.713,0-8.533,3.82-8.533,8.533s3.82,8.533,8.533,8.533h59.733c4.713,0,8.533-3.82,8.533-8.533
				S158.423,257.22,153.71,257.22z"/>
			<path d="M204.91,257.22h-17.067c-4.713,0-8.533,3.82-8.533,8.533s3.82,8.533,8.533,8.533h17.067c4.713,0,8.533-3.82,8.533-8.533
				S209.623,257.22,204.91,257.22z"/>
		</g>
	</g>
</g>
<g>
</g>
<g>
</g>
<g>
</g>
<g>
</g>
<g>
</g>
<g>
</g>
<g>
</g>
<g>
</g>
<g>
</g>
<g>
</g>
<g>
</g>
<g>
</g>
<g>
</g>
<g>
</g>
<g>
</g>
</svg>
