<?xml version="1.0" encoding="iso-8859-1"?>
<!-- Generator: Adobe Illustrator 19.0.0, SVG Export Plug-In . SVG Version: 6.00 Build 0)  -->
<svg version="1.1" id="Capa_1" xmlns="http://www.w3.org/2000/svg" xmlns:xlink="http://www.w3.org/1999/xlink" x="0px" y="0px"
	 viewBox="0 0 512 512" style="enable-background:new 0 0 512 512;" xml:space="preserve">
<g>
	<g>
		<path d="M428.719,63.242C387.936,22.46,333.713,0,276.04,0S164.142,22.46,123.36,63.242
			c-40.361,40.362-62.776,93.883-63.234,150.892l-39.292,78.584c-1.756,3.512-0.513,7.784,2.856,9.804l36.429,21.858V440.36
			c0,4.15,3.364,7.515,7.515,7.515h72.642v56.611c0,4.15,3.364,7.515,7.515,7.515s7.515-3.365,7.515-7.515V440.36
			c0-4.15-3.364-7.515-7.515-7.515H75.147v-112.72c0-2.639-1.385-5.086-3.649-6.444l-34.111-20.467l36.966-73.932
			c0.522-1.044,0.794-2.193,0.794-3.361c0-110.772,90.12-200.892,200.892-200.892s200.892,90.12,200.892,200.892
			c0,62.247-28.164,119.964-77.27,158.356c-1.822,1.424-2.887,3.608-2.887,5.921v124.287c0,4.15,3.364,7.515,7.515,7.515
			s7.515-3.365,7.515-7.515V383.823c50.992-41.246,80.157-102.228,80.157-167.901C491.961,158.247,469.502,104.024,428.719,63.242z"
			/>
	</g>
</g>
<g>
	<g>
		<path d="M441.667,137.662l-29.992-29.992c-2.936-2.935-7.693-2.935-10.628,0c-2.935,2.935-2.935,7.693,0,10.627l24.678,24.677
			l-12.871,12.871c-1.399-2.488-3.142-4.794-5.196-6.848c-9.283-9.284-23.794-11.863-35.698-6.285
			c-3.316,1.554-6.347,3.696-8.936,6.285c-9.284,9.283-11.863,23.793-6.286,35.698c1.554,3.316,3.696,6.347,6.285,8.936
			c2.054,2.054,4.36,3.796,6.848,5.196l-12.871,12.871l-21.69-21.691c-4.506-4.503-12.466-1.45-12.817,4.9
			c-0.479,8.65-7.844,15.611-16.503,15.611c-4.416,0-8.568-1.719-11.691-4.842c-6.372-6.373-6.372-17.007,0-23.38
			c2.88-2.88,6.705-4.589,10.771-4.813c6.345-0.352,9.404-8.311,4.9-12.817l-21.691-21.691l68.723-68.723l17.412,17.412
			c2.936,2.935,7.693,2.935,10.628,0c2.935-2.935,2.935-7.693,0-10.627l-22.726-22.725c-2.936-2.935-7.693-2.935-10.628,0
			l-79.35,79.351c-2.935,2.935-2.935,7.693,0,10.627l18.185,18.185c-2.488,1.399-4.794,3.142-6.848,5.196
			c-9.285,9.283-11.865,23.793-6.286,35.698c1.554,3.316,3.696,6.347,6.285,8.936c5.961,5.962,13.887,9.244,22.318,9.244
			s16.356-3.282,22.318-9.244c2.054-2.054,3.795-4.361,5.195-6.848l18.183,18.185c2.896,2.895,7.732,2.895,10.628,0l27.005-27.005
			c4.506-4.505,1.449-12.465-4.898-12.817c-4.066-0.224-7.89-1.934-10.77-4.813c-6.371-6.372-6.371-17.008,0.001-23.38
			c6.372-6.372,17.007-6.371,23.38,0c2.879,2.879,4.588,6.703,4.813,10.769c0.351,6.346,8.311,9.404,12.817,4.9l27.005-27.005
			C444.602,145.354,444.602,140.596,441.667,137.662z"/>
	</g>
</g>
<g>
	<g>
		<path d="M356.196,272.532H330.48c0.771-2.749,1.168-5.612,1.168-8.517c0-17.403-14.159-31.562-31.562-31.562
			c-17.403,0-31.562,14.159-31.562,31.562c0,2.905,0.398,5.767,1.168,8.517h-18.202v-30.676c0-6.353-7.777-9.85-12.527-5.599
			c-3.033,2.716-6.948,4.212-11.018,4.212c-9.116,0-16.532-7.417-16.532-16.532s7.417-16.532,16.532-16.532
			c4.071,0,7.986,1.496,11.018,4.212c4.75,4.251,12.527,0.756,12.527-5.598v-38.192c0-4.15-3.364-7.515-7.515-7.515H131.758
			c-4.151,0-7.515,3.365-7.515,7.515v224.438c0,4.15,3.364,7.515,7.515,7.515h224.438c4.151,0,7.515-3.365,7.515-7.515V280.047
			C363.711,275.897,360.346,272.532,356.196,272.532z M139.273,175.342h97.19v18.203c-2.748-0.77-5.612-1.169-8.517-1.169
			c-17.403,0-31.562,14.159-31.562,31.562c0,17.403,14.159,31.562,31.562,31.562c2.905,0,5.768-0.399,8.517-1.169v18.203h-30.676
			c-6.352,0-9.852,7.777-5.599,12.526c2.716,3.034,4.212,6.948,4.212,11.019c0,9.116-7.416,16.532-16.532,16.532
			c-9.116,0-16.532-7.416-16.532-16.532c0-4.071,1.496-7.985,4.212-11.019c4.253-4.749,0.755-12.526-5.599-12.526h-30.676V175.342z
			 M240.91,347.215c-2.705,1.209-4.448,3.897-4.448,6.86v30.676h-97.19v-97.19h18.202c-0.77,2.749-1.168,5.612-1.168,8.517
			c0,17.403,14.159,31.562,31.562,31.562c17.403,0,31.562-14.159,31.562-31.562c0-2.905-0.398-5.767-1.168-8.517h18.202v30.676
			c0,6.353,7.777,9.851,12.527,5.598c3.033-2.715,6.948-4.212,11.019-4.212c9.116,0,16.532,7.417,16.532,16.532
			c0,9.116-7.417,16.532-16.532,16.532c-4.071,0-7.986-1.496-11.019-4.212C246.781,346.5,243.614,346.007,240.91,347.215z
			 M348.682,384.751h-97.19v-18.203c2.748,0.771,5.612,1.169,8.517,1.169c17.403,0,31.562-14.159,31.562-31.562
			s-14.159-31.562-31.562-31.562c-2.905,0-5.768,0.399-8.517,1.169v-18.203h30.676c6.353,0,9.851-7.776,5.599-12.527
			c-2.716-3.034-4.212-6.947-4.212-11.019c0-9.116,7.417-16.532,16.532-16.532s16.532,7.417,16.532,16.532
			c0,4.072-1.496,7.985-4.212,11.019c-4.251,4.75-0.755,12.527,5.599,12.527h30.676V384.751z"/>
	</g>
</g>
<g>
</g>
<g>
</g>
<g>
</g>
<g>
</g>
<g>
</g>
<g>
</g>
<g>
</g>
<g>
</g>
<g>
</g>
<g>
</g>
<g>
</g>
<g>
</g>
<g>
</g>
<g>
</g>
<g>
</g>
</svg>
