<?xml version="1.0" standalone="no"?>
<!DOCTYPE svg PUBLIC "-//W3C//DTD SVG 20010904//EN"
 "http://www.w3.org/TR/2001/REC-SVG-20010904/DTD/svg10.dtd">
<svg version="1.0" xmlns="http://www.w3.org/2000/svg"
 width="200.000000pt" height="200.000000pt" viewBox="0 0 200.000000 200.000000"
 preserveAspectRatio="xMidYMid meet">
<metadata>
Created by potrace 1.15, written by Peter Selinger 2001-2017
</metadata>
<g transform="translate(0.000000,200.000000) scale(0.100000,-0.100000)"
fill="#000000" stroke="none">
<path d="M634 1931 c-207 -33 -380 -161 -469 -345 -51 -107 -65 -167 -65 -280
0 -172 61 -319 184 -442 134 -133 284 -191 475 -181 122 6 196 28 293 87 l63
39 50 -49 49 -49 -22 -24 -21 -23 257 -256 c141 -141 267 -261 279 -267 12 -6
42 -11 67 -11 39 0 52 6 84 34 35 33 37 38 37 95 l0 61 -267 267 -267 267 -24
-22 -23 -22 -48 49 -47 48 40 64 c64 103 94 205 94 324 1 122 -13 185 -65 294
-56 119 -161 223 -279 279 -46 22 -104 44 -129 50 -66 16 -187 22 -246 13z
m182 -142 c266 -49 451 -324 390 -583 -54 -229 -248 -386 -475 -386 -143 0
-263 52 -359 155 -92 98 -132 198 -132 331 0 103 26 191 81 273 52 78 107 125
195 167 106 52 188 64 300 43z"/>
<path d="M588 1718 c-56 -15 -46 -28 21 -28 122 0 257 -65 357 -171 90 -97
132 -190 143 -324 l7 -80 17 54 c70 223 -65 480 -287 546 -56 17 -200 18 -258
3z"/>
</g>
</svg>
